<svg xmlns="http://www.w3.org/2000/svg" viewBox="0 0 512 512">
  <rect width="512" height="512" rx="32" fill="#ffffff"/>
  <rect x="40" y="40" width="120" height="120" rx="12" fill="#203224"/>
  <rect x="72" y="72" width="56" height="56" fill="#ffffff"/>
  <rect x="352" y="40" width="120" height="120" rx="12" fill="#203224"/>
  <rect x="384" y="72" width="56" height="56" fill="#ffffff"/>
  <rect x="40" y="352" width="120" height="120" rx="12" fill="#203224"/>
  <rect x="72" y="384" width="56" height="56" fill="#ffffff"/>
  <g fill="#203224">
    <rect x="216" y="56" width="24" height="24"/>
    <rect x="248" y="56" width="24" height="24"/>
    <rect x="280" y="56" width="24" height="24"/>
    <rect x="216" y="88" width="24" height="24"/>
    <rect x="280" y="88" width="24" height="24"/>
    <rect x="216" y="120" width="24" height="24"/>
    <rect x="248" y="120" width="24" height="24"/>
    <rect x="280" y="120" width="24" height="24"/>
    <rect x="184" y="184" width="24" height="24"/>
    <rect x="216" y="184" width="24" height="24"/>
    <rect x="248" y="184" width="24" height="24"/>
    <rect x="280" y="184" width="24" height="24"/>
    <rect x="312" y="184" width="24" height="24"/>
    <rect x="184" y="216" width="24" height="24"/>
    <rect x="248" y="216" width="24" height="24"/>
    <rect x="312" y="216" width="24" height="24"/>
    <rect x="184" y="248" width="24" height="24"/>
    <rect x="216" y="248" width="24" height="24"/>
    <rect x="280" y="248" width="24" height="24"/>
    <rect x="312" y="248" width="24" height="24"/>
    <rect x="184" y="280" width="24" height="24"/>
    <rect x="216" y="280" width="24" height="24"/>
    <rect x="248" y="280" width="24" height="24"/>
    <rect x="312" y="280" width="24" height="24"/>
    <rect x="184" y="312" width="24" height="24"/>
    <rect x="248" y="312" width="24" height="24"/>
    <rect x="280" y="312" width="24" height="24"/>
    <rect x="312" y="312" width="24" height="24"/>
    <rect x="352" y="184" width="24" height="24"/>
    <rect x="384" y="184" width="24" height="24"/>
    <rect x="416" y="184" width="24" height="24"/>
    <rect x="352" y="216" width="24" height="24"/>
    <rect x="416" y="216" width="24" height="24"/>
    <rect x="352" y="248" width="24" height="24"/>
    <rect x="384" y="248" width="24" height="24"/>
    <rect x="416" y="248" width="24" height="24"/>
    <rect x="352" y="280" width="24" height="24"/>
    <rect x="416" y="280" width="24" height="24"/>
    <rect x="352" y="312" width="24" height="24"/>
    <rect x="384" y="312" width="24" height="24"/>
    <rect x="416" y="312" width="24" height="24"/>
  </g>
  <text x="256" y="474" text-anchor="middle" font-family="Arial, sans-serif" font-size="28" font-weight="700" fill="#6f8f5c">DRS UPI QR</text>
</svg>
