<?xml version="1.0" encoding="UTF-8"?> <svg xmlns="http://www.w3.org/2000/svg" xmlns:xlink="http://www.w3.org/1999/xlink" version="1.1" id="Layer_1" x="0px" y="0px" viewBox="0 0 1024 485" style="enable-background:new 0 0 1024 485;" xml:space="preserve"><style type="text/css"> .st0{fill:#60269E;} .st1{fill:#262523;} </style><g><g><polygon class="st0" points="171.3,337.28 149.11,356.25 164.6,374.31 "></polygon><polygon class="st0" points="191.24,313.08 240.83,270.67 188.86,270.67 181.29,312.55 "></polygon><polygon class="st0" points="263.76,364.37 268.15,322.61 193.11,318.62 177.83,331.69 169.16,379.62 185.4,398.54 "></polygon><polygon class="st0" points="167.92,386.51 164.06,407.85 180.19,400.82 "></polygon><polygon class="st0" points="179.36,323.24 185.25,318.2 180.32,317.94 "></polygon><polygon class="st0" points="347.38,270.67 316,270.67 354.67,314.72 "></polygon><polygon class="st0" points="397.29,144 430.1,144 425.88,119.55 "></polygon><polygon class="st0" points="273.58,322.9 269.49,361.88 349.59,326.95 "></polygon><polygon class="st0" points="308.77,270.67 279.07,270.67 274.15,317.49 353.59,321.72 "></polygon><polygon class="st0" points="273.61,270.67 249.19,270.67 199.1,313.5 268.72,317.21 "></polygon><polygon class="st0" points="105.12,313.31 0,476.63 141.45,355.66 "></polygon><polygon class="st0" points="293.26,135.51 292.37,144 310.61,144 "></polygon><polygon class="st0" points="504.44,144 515.99,144 507.39,136.92 "></polygon><polygon class="st0" points="288.67,127.22 293.06,85.42 245.27,105.98 "></polygon><polygon class="st0" points="416.99,353.38 451.54,270.67 451.95,270.67 461.83,327.99 "></polygon><polygon class="st0" points="940.51,144 940.51,0.42 718.59,0.42 626.44,144 "></polygon><polygon class="st0" points="320.32,73.69 331.95,144 388.94,144 424.81,113.32 415.87,61.5 392.81,42.5 "></polygon><polygon class="st0" points="158.06,410.46 163.36,381.2 144.98,359.78 10.48,474.81 "></polygon><polygon class="st0" points="398.42,40.09 414.46,53.3 411.23,34.58 "></polygon><polygon class="st0" points="174.85,317.65 113.18,314.37 145.58,352.13 172.83,328.83 "></polygon><polygon class="st0" points="299.43,76.76 314.26,70.38 305.6,17.99 "></polygon><polygon class="st0" points="293.87,129.76 322.97,144 326.44,144 315.18,75.9 298.78,82.96 "></polygon><polygon class="st0" points="268.84,368.09 256.71,483.54 355.56,330.27 "></polygon><polygon class="st0" points="393.7,36.2 410.28,29.07 405.51,1.45 351.53,1.45 "></polygon><polygon class="st0" points="319.41,68.17 388.09,38.61 342.99,1.45 308.37,1.45 "></polygon><polygon class="st0" points="415.41,26.86 474.47,1.45 411.03,1.45 "></polygon><polygon class="st0" points="416.36,32.37 420.88,58.6 455.47,87.1 555.63,1.45 488.23,1.45 "></polygon><polygon class="st0" points="509.58,131.69 524.53,144 559.81,144 559.81,11.42 "></polygon><polygon class="st0" points="286.91,144 288.07,132.97 238.7,108.81 235.98,109.98 214.08,144 "></polygon><polygon class="st0" points="545.14,270.67 407.85,484.57 633.27,484.57 737.83,322.91 737.83,484.57 940.51,484.57 940.51,270.67 "></polygon><polygon class="st0" points="413.58,361.55 364.33,479.5 455.47,337.88 "></polygon><polygon class="st0" points="459.73,90.6 505.2,128.08 554.81,9.29 "></polygon><polygon class="st0" points="293.71,79.22 301.11,8.79 241.25,101.79 "></polygon><polygon class="st0" points="498.73,270.67 457.46,270.67 466.18,321.24 "></polygon><polygon class="st0" points="162.9,414.28 150.18,484.58 252.04,484.58 183.89,405.13 "></polygon><polygon class="st0" points="175.82,312.26 183.34,270.67 132.56,270.67 108.11,308.65 "></polygon><polygon class="st0" points="156.9,416.9 1.68,484.58 144.66,484.58 "></polygon><polygon class="st0" points="430.69,115.44 435.61,144 498.55,144 503.01,133.31 455.54,94.19 "></polygon><polygon class="st0" points="429.61,109.22 451.28,90.68 422.3,66.8 "></polygon><polygon class="st0" points="189.09,402.86 252.02,476.21 263.11,370.58 "></polygon><polygon class="st0" points="360.31,327.52 360.31,385.41 409.29,357.74 445.65,270.67 434.74,270.67 360.34,325.97 "></polygon><polygon class="st0" points="425.63,270.67 352.89,270.67 360.85,318.82 "></polygon><polygon class="st0" points="360.31,391.65 360.31,475.01 405.88,365.9 "></polygon></g><g><g><path class="st1" d="M237.23,159.54c-2.17-1.82-6.93-1.65-6.93-1.65h-2.66l-12.24-0.01c-1.08,0-3.31-0.1-5.62,2.17 c-0.56,0.55-33.19,33.17-50.2,50.24l-4.95,4.84l-0.66,0.63l11.34-50.33l0.12-0.51c0,0,0.9-3.57-1.26-5.38 c-2.17-1.82-6.93-1.65-6.93-1.65h-2.66l-12.24-0.01c-1.08,0-3.31-0.1-5.62,2.17c-0.56,0.55-33.19,33.17-50.2,50.24l-4.94,4.84 l-28.22,27.09c0,0-1.38,1.14-0.5,2.03c0.28,0.34,0.96,0.32,2.37,0.32h25.73c0,0,0.97,0,2.39-0.64c1.17-0.53,1.68-1.1,1.68-1.1 l54.26-56.58l-13.53,56.81c-0.08,0.17-0.13,0.35-0.12,0.53l0,0.01h0c0.01,0.22,0.08,0.44,0.29,0.64 c0.28,0.34,0.96,0.32,2.37,0.32h19.08l0.12,0.01l0-0.01h6.53c0,0,0.98,0,2.4-0.64c1.17-0.53,1.68-1.1,1.68-1.1l54.25-56.58 l-13.88,58.3l22.09,0.02l17.82-79.14l0.12-0.51C238.49,164.93,239.4,161.36,237.23,159.54"></path><path class="st1" d="M321.58,221.25c-1.38,6.41-5.15,11.91-11.3,16.49c-6.19,4.55-12.92,6.82-20.21,6.82h-31.89 c-7.32,0-13.09-2.27-17.32-6.82c-4.22-4.66-5.66-10.16-4.31-16.49l10.92-51.23h21.24l-10.54,49.37c-0.4,1.86,0.02,3.4,1.26,4.64 c1.27,1.27,2.91,1.91,4.91,1.91h27.58c2.04,0,3.91-0.64,5.62-1.91c1.71-1.28,2.77-2.82,3.17-4.64l10.48-49.37h21.3L321.58,221.25 z"></path><path class="st1" d="M414.45,222.18c-1.28,5.97-4.81,11.2-10.59,15.68c-5.76,4.48-11.96,6.72-18.63,6.72h-55.26l4.04-18.62h52.1 c1.71,0,3.29-0.56,4.75-1.69c1.49-1.13,2.38-2.44,2.67-3.93c0.33-1.42-0.04-2.71-1.09-3.88c-1.02-1.13-2.37-1.69-4.04-1.69 h-32.98c-6.63,0-11.87-2.26-15.73-6.77c-3.86-4.52-5.17-9.72-3.93-15.62c1.24-5.86,4.75-11.05,10.54-15.56 c5.72-4.52,11.92-6.78,18.62-6.78h55.27l-3.88,18.62h-52.1c-1.75,0-3.35,0.57-4.81,1.69c-1.53,1.09-2.46,2.39-2.79,3.88 c-0.29,1.49,0.07,2.8,1.09,3.93c1.02,1.13,2.37,1.69,4.04,1.69h32.99c6.66,0,11.92,2.26,15.78,6.77 C414.37,211.1,415.69,216.28,414.45,222.18"></path><path class="st1" d="M491.85,244.57h-47.84c-7.32,0-13.09-2.28-17.31-6.83c-4.22-4.66-5.66-10.15-4.31-16.49l6.01-27.96 c1.35-6.37,5.1-11.83,11.25-16.38c6.15-4.59,12.91-6.88,20.26-6.88h42.49l-3.93,18.62H458.1c-1.97,0-3.86,0.64-5.68,1.91 c-1.75,1.28-2.8,2.81-3.17,4.59l-5.25,24.25c-0.4,1.86,0.02,3.4,1.26,4.64c1.27,1.27,2.91,1.91,4.92,1.91h45.65L491.85,244.57z"></path><polygon class="st1" points="569.21,244.57 500.13,244.57 515.96,170.03 537.21,170.03 525.41,225.95 573.2,225.95 "></polygon><polygon class="st1" points="651.87,244.57 577.49,244.57 593.33,170.03 662.41,170.03 658.48,188.65 610.69,188.65 608.23,199.85 650.72,199.85 647.56,214.76 605.07,214.76 602.77,225.95 655.85,225.95 "></polygon><polygon class="st1" points="740.62,188.65 714.07,188.65 702.17,244.57 680.87,244.57 692.83,188.65 666.24,188.65 670.17,170.03 744.55,170.03 "></polygon><polygon class="st1" points="811.37,244.57 736.99,244.57 752.83,170.03 821.91,170.03 817.98,188.65 770.19,188.65 767.73,199.85 810.22,199.85 807.06,214.76 764.57,214.76 762.27,225.95 815.35,225.95 "></polygon><path class="st1" d="M892.68,244.57h-47.84c-7.32,0-13.09-2.28-17.31-6.83c-4.22-4.66-5.66-10.15-4.31-16.49l6.01-27.96 c1.35-6.37,5.1-11.83,11.25-16.38c6.15-4.59,12.91-6.88,20.26-6.88h42.49l-3.93,18.62h-40.36c-1.97,0-3.86,0.64-5.68,1.91 c-1.75,1.28-2.8,2.81-3.17,4.59l-5.25,24.25c-0.4,1.86,0.02,3.4,1.26,4.64c1.27,1.27,2.91,1.91,4.92,1.91h45.65L892.68,244.57z"></path><polygon class="st1" points="985.27,244.57 964.02,244.57 970.36,214.76 927.87,214.76 921.53,244.57 900.29,244.57 916.13,170.03 937.37,170.03 931.04,199.85 973.52,199.85 979.86,170.03 1001.16,170.03 "></polygon></g><g><path class="st1" d="M1006.98,171.77v-1.5h6.99v1.5h-2.62v7.11h-1.77v-7.11H1006.98z"></path><path class="st1" d="M1017,170.27l2.53,4.78l2.57-4.78h1.9v8.61h-1.77v-6.01l-2.18,4.2H1019l-2.15-4.19v6h-1.76v-8.61H1017z"></path></g></g></g></svg> 